<svg xmlns="http://www.w3.org/2000/svg" width="2400" height="2504" viewBox="0 0 2400 2504" font-family="Inter,Arial,sans-serif">
  <rect width="2400" height="2504" fill="#F8FAFC"/>
  <text x="1200" y="38" text-anchor="middle" font-size="20" font-weight="700" fill="#003366">Flight Operations — Application Landscape</text>
  <text x="1200" y="58" text-anchor="middle" font-size="12" fill="#64748B">15 subprocesses · 79 systems · 2 L2 process groups</text>
  <rect x="50" y="72" width="2300" height="75" rx="8" fill="#EFF6FF" stroke="#BFDBFE" stroke-width="1"/>
  <text x="58" y="90" font-size="9" font-weight="700" fill="#94A3B8" letter-spacing="1">L2 PROCESS GROUPS</text>
  <rect x="930" y="100" width="260" height="55" rx="6" fill="#003366" stroke="#001F3F" stroke-width="1.5"/>
  <text x="1060" y="120" text-anchor="middle" font-size="11" font-weight="700" fill="#FFF">Flight Dispatch</text>
  <text x="1060" y="134" text-anchor="middle" font-size="11" font-weight="700" fill="#FFF">&amp; Control</text>
  <rect x="1210" y="100" width="260" height="55" rx="6" fill="#004080" stroke="#001F3F" stroke-width="1.5"/>
  <text x="1340" y="120" text-anchor="middle" font-size="11" font-weight="700" fill="#FFF">Network</text>
  <text x="1340" y="134" text-anchor="middle" font-size="11" font-weight="700" fill="#FFF">Operations Control</text>
  <rect x="50" y="220" width="753" height="716" rx="10" fill="#DBEAFE" stroke="#1D4ED8" stroke-width="1.5" opacity="0.45"/>
  <text x="62" y="242" font-size="12" font-weight="700" fill="#1E3A8A">Planning &amp; Scheduling</text>
  <rect x="823" y="936" width="753" height="142" rx="10" fill="#DCFCE7" stroke="#16A34A" stroke-width="1.5" opacity="0.45"/>
  <text x="835" y="958" font-size="12" font-weight="700" fill="#14532D">PSS &amp; Reservations</text>
  <rect x="1597" y="1078" width="753" height="306" rx="10" fill="#FFF3E0" stroke="#EA580C" stroke-width="1.5" opacity="0.45"/>
  <text x="1609" y="1100" font-size="12" font-weight="700" fill="#7C2D12">Operations &amp; Crew</text>
  <rect x="50" y="1404" width="753" height="224" rx="10" fill="#CCFBF1" stroke="#0D9488" stroke-width="1.5" opacity="0.45"/>
  <text x="62" y="1426" font-size="12" font-weight="700" fill="#134E4A">Analytics &amp; BI</text>
  <rect x="823" y="1628" width="753" height="142" rx="10" fill="#FDF4FF" stroke="#A21CAF" stroke-width="1.5" opacity="0.45"/>
  <text x="835" y="1650" font-size="12" font-weight="700" fill="#701A75">CRM &amp; Loyalty</text>
  <rect x="1597" y="1770" width="753" height="634" rx="10" fill="#F8FAFC" stroke="#94A3B8" stroke-width="1.5" opacity="0.45"/>
  <text x="1609" y="1792" font-size="12" font-weight="700" fill="#475569">Other Systems</text>
  <path d="M 1060 155 C 1060 210 143 210 143 266" fill="none" stroke="#1D4ED8" stroke-width="1.2" opacity="0.3"/>
  <path d="M 1340 155 C 1340 210 143 210 143 266" fill="none" stroke="#0D9488" stroke-width="1.2" opacity="0.3"/>
  <path d="M 1060 155 C 1060 210 311 210 311 266" fill="none" stroke="#1D4ED8" stroke-width="1.2" opacity="0.3"/>
  <path d="M 1340 155 C 1340 210 311 210 311 266" fill="none" stroke="#0D9488" stroke-width="1.2" opacity="0.3"/>
  <path d="M 1060 155 C 1060 210 479 210 479 266" fill="none" stroke="#1D4ED8" stroke-width="1.2" opacity="0.3"/>
  <path d="M 1340 155 C 1340 210 479 210 479 266" fill="none" stroke="#0D9488" stroke-width="1.2" opacity="0.3"/>
  <path d="M 1060 155 C 1060 210 647 210 647 266" fill="none" stroke="#1D4ED8" stroke-width="1.2" opacity="0.3"/>
  <path d="M 1060 155 C 1060 252 143 252 143 348" fill="none" stroke="#1D4ED8" stroke-width="1.2" opacity="0.3"/>
  <path d="M 1340 155 C 1340 252 143 252 143 348" fill="none" stroke="#0D9488" stroke-width="1.2" opacity="0.3"/>
  <path d="M 1060 155 C 1060 252 311 252 311 348" fill="none" stroke="#1D4ED8" stroke-width="1.2" opacity="0.3"/>
  <path d="M 1340 155 C 1340 252 311 252 311 348" fill="none" stroke="#0D9488" stroke-width="1.2" opacity="0.3"/>
  <path d="M 1060 155 C 1060 252 479 252 479 348" fill="none" stroke="#1D4ED8" stroke-width="1.2" opacity="0.3"/>
  <path d="M 1060 155 C 1060 252 647 252 647 348" fill="none" stroke="#1D4ED8" stroke-width="1.2" opacity="0.3"/>
  <path d="M 1340 155 C 1340 252 647 252 647 348" fill="none" stroke="#0D9488" stroke-width="1.2" opacity="0.3"/>
  <path d="M 1060 155 C 1060 292 143 292 143 430" fill="none" stroke="#1D4ED8" stroke-width="1.2" opacity="0.3"/>
  <path d="M 1060 155 C 1060 292 311 292 311 430" fill="none" stroke="#1D4ED8" stroke-width="1.2" opacity="0.3"/>
  <path d="M 1060 155 C 1060 292 479 292 479 430" fill="none" stroke="#1D4ED8" stroke-width="1.2" opacity="0.3"/>
  <path d="M 1060 155 C 1060 292 647 292 647 430" fill="none" stroke="#1D4ED8" stroke-width="1.2" opacity="0.3"/>
  <path d="M 1060 155 C 1060 334 143 334 143 512" fill="none" stroke="#1D4ED8" stroke-width="1.2" opacity="0.3"/>
  <path d="M 1060 155 C 1060 334 311 334 311 512" fill="none" stroke="#1D4ED8" stroke-width="1.2" opacity="0.3"/>
  <path d="M 1060 155 C 1060 334 479 334 479 512" fill="none" stroke="#1D4ED8" stroke-width="1.2" opacity="0.3"/>
  <path d="M 1060 155 C 1060 334 647 334 647 512" fill="none" stroke="#1D4ED8" stroke-width="1.2" opacity="0.3"/>
  <path d="M 1060 155 C 1060 374 143 374 143 594" fill="none" stroke="#1D4ED8" stroke-width="1.2" opacity="0.3"/>
  <path d="M 1060 155 C 1060 374 311 374 311 594" fill="none" stroke="#1D4ED8" stroke-width="1.2" opacity="0.3"/>
  <path d="M 1060 155 C 1060 374 479 374 479 594" fill="none" stroke="#1D4ED8" stroke-width="1.2" opacity="0.3"/>
  <path d="M 1060 155 C 1060 374 647 374 647 594" fill="none" stroke="#1D4ED8" stroke-width="1.2" opacity="0.3"/>
  <path d="M 1340 155 C 1340 416 143 416 143 676" fill="none" stroke="#1D4ED8" stroke-width="1.2" opacity="0.3"/>
  <path d="M 1340 155 C 1340 416 311 416 311 676" fill="none" stroke="#1D4ED8" stroke-width="1.2" opacity="0.3"/>
  <path d="M 1340 155 C 1340 416 479 416 479 676" fill="none" stroke="#1D4ED8" stroke-width="1.2" opacity="0.3"/>
  <path d="M 1340 155 C 1340 416 647 416 647 676" fill="none" stroke="#1D4ED8" stroke-width="1.2" opacity="0.3"/>
  <path d="M 1340 155 C 1340 456 143 456 143 758" fill="none" stroke="#1D4ED8" stroke-width="1.2" opacity="0.3"/>
  <path d="M 1340 155 C 1340 456 311 456 311 758" fill="none" stroke="#1D4ED8" stroke-width="1.2" opacity="0.3"/>
  <path d="M 1340 155 C 1340 456 479 456 479 758" fill="none" stroke="#1D4ED8" stroke-width="1.2" opacity="0.3"/>
  <path d="M 1340 155 C 1340 456 647 456 647 758" fill="none" stroke="#1D4ED8" stroke-width="1.2" opacity="0.3"/>
  <path d="M 1340 155 C 1340 498 143 498 143 840" fill="none" stroke="#1D4ED8" stroke-width="1.2" opacity="0.3"/>
  <path d="M 1060 155 C 1060 498 311 498 311 840" fill="none" stroke="#1D4ED8" stroke-width="1.2" opacity="0.3"/>
  <path d="M 1060 155 C 1060 568 916 568 916 982" fill="none" stroke="#1D4ED8" stroke-width="1.2" opacity="0.3"/>
  <path d="M 1340 155 C 1340 568 916 568 916 982" fill="none" stroke="#0D9488" stroke-width="1.2" opacity="0.3"/>
  <path d="M 1060 155 C 1060 568 1084 568 1084 982" fill="none" stroke="#1D4ED8" stroke-width="1.2" opacity="0.3"/>
  <path d="M 1060 155 C 1060 568 1252 568 1252 982" fill="none" stroke="#1D4ED8" stroke-width="1.2" opacity="0.3"/>
  <path d="M 1060 155 C 1060 640 1690 640 1690 1124" fill="none" stroke="#1D4ED8" stroke-width="1.2" opacity="0.3"/>
  <path d="M 1340 155 C 1340 640 1690 640 1690 1124" fill="none" stroke="#0D9488" stroke-width="1.2" opacity="0.3"/>
  <path d="M 1060 155 C 1060 640 1858 640 1858 1124" fill="none" stroke="#1D4ED8" stroke-width="1.2" opacity="0.3"/>
  <path d="M 1340 155 C 1340 640 1858 640 1858 1124" fill="none" stroke="#0D9488" stroke-width="1.2" opacity="0.3"/>
  <path d="M 1060 155 C 1060 640 2026 640 2026 1124" fill="none" stroke="#1D4ED8" stroke-width="1.2" opacity="0.3"/>
  <path d="M 1340 155 C 1340 640 2026 640 2026 1124" fill="none" stroke="#0D9488" stroke-width="1.2" opacity="0.3"/>
  <path d="M 1060 155 C 1060 640 2194 640 2194 1124" fill="none" stroke="#1D4ED8" stroke-width="1.2" opacity="0.3"/>
  <path d="M 1060 155 C 1060 680 1690 680 1690 1206" fill="none" stroke="#1D4ED8" stroke-width="1.2" opacity="0.3"/>
  <path d="M 1060 155 C 1060 680 1858 680 1858 1206" fill="none" stroke="#1D4ED8" stroke-width="1.2" opacity="0.3"/>
  <path d="M 1060 155 C 1060 680 2026 680 2026 1206" fill="none" stroke="#1D4ED8" stroke-width="1.2" opacity="0.3"/>
  <path d="M 1060 155 C 1060 680 2194 680 2194 1206" fill="none" stroke="#1D4ED8" stroke-width="1.2" opacity="0.3"/>
  <path d="M 1060 155 C 1060 722 1690 722 1690 1288" fill="none" stroke="#1D4ED8" stroke-width="1.2" opacity="0.3"/>
  <path d="M 1340 155 C 1340 722 1858 722 1858 1288" fill="none" stroke="#1D4ED8" stroke-width="1.2" opacity="0.3"/>
  <path d="M 1340 155 C 1340 722 2026 722 2026 1288" fill="none" stroke="#1D4ED8" stroke-width="1.2" opacity="0.3"/>
  <path d="M 1340 155 C 1340 722 2194 722 2194 1288" fill="none" stroke="#1D4ED8" stroke-width="1.2" opacity="0.3"/>
  <path d="M 1060 155 C 1060 802 143 802 143 1450" fill="none" stroke="#1D4ED8" stroke-width="1.2" opacity="0.3"/>
  <path d="M 1340 155 C 1340 802 143 802 143 1450" fill="none" stroke="#0D9488" stroke-width="1.2" opacity="0.3"/>
  <path d="M 1060 155 C 1060 802 311 802 311 1450" fill="none" stroke="#1D4ED8" stroke-width="1.2" opacity="0.3"/>
  <path d="M 1060 155 C 1060 802 479 802 479 1450" fill="none" stroke="#1D4ED8" stroke-width="1.2" opacity="0.3"/>
  <path d="M 1340 155 C 1340 802 647 802 647 1450" fill="none" stroke="#1D4ED8" stroke-width="1.2" opacity="0.3"/>
  <path d="M 1340 155 C 1340 844 143 844 143 1532" fill="none" stroke="#1D4ED8" stroke-width="1.2" opacity="0.3"/>
  <path d="M 1060 155 C 1060 844 311 844 311 1532" fill="none" stroke="#1D4ED8" stroke-width="1.2" opacity="0.3"/>
  <path d="M 1340 155 C 1340 914 916 914 916 1674" fill="none" stroke="#1D4ED8" stroke-width="1.2" opacity="0.3"/>
  <path d="M 1060 155 C 1060 986 1690 986 1690 1816" fill="none" stroke="#1D4ED8" stroke-width="1.2" opacity="0.3"/>
  <path d="M 1060 155 C 1060 986 1858 986 1858 1816" fill="none" stroke="#1D4ED8" stroke-width="1.2" opacity="0.3"/>
  <path d="M 1060 155 C 1060 986 2026 986 2026 1816" fill="none" stroke="#1D4ED8" stroke-width="1.2" opacity="0.3"/>
  <path d="M 1060 155 C 1060 986 2194 986 2194 1816" fill="none" stroke="#1D4ED8" stroke-width="1.2" opacity="0.3"/>
  <path d="M 1060 155 C 1060 1026 1690 1026 1690 1898" fill="none" stroke="#1D4ED8" stroke-width="1.2" opacity="0.3"/>
  <path d="M 1060 155 C 1060 1026 1858 1026 1858 1898" fill="none" stroke="#1D4ED8" stroke-width="1.2" opacity="0.3"/>
  <path d="M 1060 155 C 1060 1026 2026 1026 2026 1898" fill="none" stroke="#1D4ED8" stroke-width="1.2" opacity="0.3"/>
  <path d="M 1060 155 C 1060 1026 2194 1026 2194 1898" fill="none" stroke="#1D4ED8" stroke-width="1.2" opacity="0.3"/>
  <path d="M 1060 155 C 1060 1068 1690 1068 1690 1980" fill="none" stroke="#1D4ED8" stroke-width="1.2" opacity="0.3"/>
  <path d="M 1060 155 C 1060 1068 1858 1068 1858 1980" fill="none" stroke="#1D4ED8" stroke-width="1.2" opacity="0.3"/>
  <path d="M 1060 155 C 1060 1068 2026 1068 2026 1980" fill="none" stroke="#1D4ED8" stroke-width="1.2" opacity="0.3"/>
  <path d="M 1060 155 C 1060 1068 2194 1068 2194 1980" fill="none" stroke="#1D4ED8" stroke-width="1.2" opacity="0.3"/>
  <path d="M 1340 155 C 1340 1108 1690 1108 1690 2062" fill="none" stroke="#1D4ED8" stroke-width="1.2" opacity="0.3"/>
  <path d="M 1340 155 C 1340 1108 1858 1108 1858 2062" fill="none" stroke="#1D4ED8" stroke-width="1.2" opacity="0.3"/>
  <path d="M 1340 155 C 1340 1108 2026 1108 2026 2062" fill="none" stroke="#1D4ED8" stroke-width="1.2" opacity="0.3"/>
  <path d="M 1340 155 C 1340 1108 2194 1108 2194 2062" fill="none" stroke="#1D4ED8" stroke-width="1.2" opacity="0.3"/>
  <path d="M 1340 155 C 1340 1150 1690 1150 1690 2144" fill="none" stroke="#1D4ED8" stroke-width="1.2" opacity="0.3"/>
  <path d="M 1340 155 C 1340 1150 1858 1150 1858 2144" fill="none" stroke="#1D4ED8" stroke-width="1.2" opacity="0.3"/>
  <path d="M 1060 155 C 1060 1150 2026 1150 2026 2144" fill="none" stroke="#1D4ED8" stroke-width="1.2" opacity="0.3"/>
  <path d="M 1340 155 C 1340 1150 2194 1150 2194 2144" fill="none" stroke="#1D4ED8" stroke-width="1.2" opacity="0.3"/>
  <path d="M 1340 155 C 1340 1190 1690 1190 1690 2226" fill="none" stroke="#1D4ED8" stroke-width="1.2" opacity="0.3"/>
  <path d="M 1340 155 C 1340 1190 1858 1190 1858 2226" fill="none" stroke="#1D4ED8" stroke-width="1.2" opacity="0.3"/>
  <path d="M 1060 155 C 1060 1190 2026 1190 2026 2226" fill="none" stroke="#1D4ED8" stroke-width="1.2" opacity="0.3"/>
  <path d="M 1060 155 C 1060 1190 2194 1190 2194 2226" fill="none" stroke="#1D4ED8" stroke-width="1.2" opacity="0.3"/>
  <path d="M 1060 155 C 1060 1232 1690 1232 1690 2308" fill="none" stroke="#1D4ED8" stroke-width="1.2" opacity="0.3"/>
  <path d="M 1060 155 C 1060 1232 1858 1232 1858 2308" fill="none" stroke="#1D4ED8" stroke-width="1.2" opacity="0.3"/>
  <path d="M 1060 155 C 1060 1232 2026 1232 2026 2308" fill="none" stroke="#1D4ED8" stroke-width="1.2" opacity="0.3"/>
  <rect x="64" y="266" width="158" height="72" rx="5" fill="white" stroke="#1D4ED8" stroke-width="1.5"/>
  <text x="143" y="298" text-anchor="middle" font-size="10" font-weight="600" fill="#1E3A8A">SITA AMS</text>
  <text x="143" y="331" text-anchor="middle" font-size="8" fill="#94A3B8">8p</text>
  <rect x="232" y="266" width="158" height="72" rx="5" fill="white" stroke="#1D4ED8" stroke-width="1.5"/>
  <text x="311" y="294" text-anchor="middle" font-size="10" font-weight="600" fill="#1E3A8A">Honeywell</text>
  <text x="311" y="307" text-anchor="middle" font-size="10" font-weight="600" fill="#1E3A8A">GoDirect Weather</text>
  <text x="311" y="331" text-anchor="middle" font-size="8" fill="#94A3B8">6p</text>
  <rect x="400" y="266" width="158" height="72" rx="5" fill="white" stroke="#1D4ED8" stroke-width="1.5"/>
  <text x="479" y="298" text-anchor="middle" font-size="10" font-weight="600" fill="#1E3A8A">NAVBLUE</text>
  <text x="479" y="331" text-anchor="middle" font-size="8" fill="#94A3B8">5p</text>
  <rect x="568" y="266" width="158" height="72" rx="5" fill="white" stroke="#1D4ED8" stroke-width="1.5"/>
  <text x="647" y="298" text-anchor="middle" font-size="10" font-weight="600" fill="#1E3A8A">Jeppesen FliteDeck</text>
  <text x="647" y="331" text-anchor="middle" font-size="8" fill="#94A3B8">5p</text>
  <rect x="64" y="348" width="158" height="72" rx="5" fill="white" stroke="#1D4ED8" stroke-width="1.5"/>
  <text x="143" y="380" text-anchor="middle" font-size="10" font-weight="600" fill="#1E3A8A">Jeppesen Crew</text>
  <text x="143" y="413" text-anchor="middle" font-size="8" fill="#94A3B8">3p</text>
  <rect x="232" y="348" width="158" height="72" rx="5" fill="white" stroke="#1D4ED8" stroke-width="1.5"/>
  <text x="311" y="380" text-anchor="middle" font-size="10" font-weight="600" fill="#1E3A8A">Honeywell GoDirect</text>
  <text x="311" y="413" text-anchor="middle" font-size="8" fill="#94A3B8">3p</text>
  <rect x="400" y="348" width="158" height="72" rx="5" fill="white" stroke="#1D4ED8" stroke-width="1.5"/>
  <text x="479" y="376" text-anchor="middle" font-size="10" font-weight="600" fill="#1E3A8A">Jeppesen</text>
  <text x="479" y="389" text-anchor="middle" font-size="10" font-weight="600" fill="#1E3A8A">FliteDeck (EFB)</text>
  <text x="479" y="413" text-anchor="middle" font-size="8" fill="#94A3B8">2p</text>
  <rect x="568" y="348" width="158" height="72" rx="5" fill="white" stroke="#1D4ED8" stroke-width="1.5"/>
  <text x="647" y="376" text-anchor="middle" font-size="10" font-weight="600" fill="#1E3A8A">NAVBLUE</text>
  <text x="647" y="389" text-anchor="middle" font-size="10" font-weight="600" fill="#1E3A8A">Flight Planning</text>
  <text x="647" y="413" text-anchor="middle" font-size="8" fill="#94A3B8">2p</text>
  <rect x="64" y="430" width="158" height="72" rx="5" fill="white" stroke="#1D4ED8" stroke-width="1.5"/>
  <text x="143" y="458" text-anchor="middle" font-size="10" font-weight="600" fill="#1E3A8A">Jeppesen</text>
  <text x="143" y="471" text-anchor="middle" font-size="10" font-weight="600" fill="#1E3A8A">FliteDeck Performance</text>
  <text x="143" y="495" text-anchor="middle" font-size="8" fill="#94A3B8">1p</text>
  <rect x="232" y="430" width="158" height="72" rx="5" fill="white" stroke="#1D4ED8" stroke-width="1.5"/>
  <text x="311" y="458" text-anchor="middle" font-size="10" font-weight="600" fill="#1E3A8A">SITA ACARS /</text>
  <text x="311" y="471" text-anchor="middle" font-size="10" font-weight="600" fill="#1E3A8A">NAVBLUE FPL Filing</text>
  <text x="311" y="495" text-anchor="middle" font-size="8" fill="#94A3B8">1p</text>
  <rect x="400" y="430" width="158" height="72" rx="5" fill="white" stroke="#1D4ED8" stroke-width="1.5"/>
  <text x="479" y="458" text-anchor="middle" font-size="10" font-weight="600" fill="#1E3A8A">FAA TFMS Flight</text>
  <text x="479" y="471" text-anchor="middle" font-size="10" font-weight="600" fill="#1E3A8A">Schedule Monitor (FSM)</text>
  <text x="479" y="495" text-anchor="middle" font-size="8" fill="#94A3B8">1p</text>
  <rect x="568" y="430" width="158" height="72" rx="5" fill="white" stroke="#1D4ED8" stroke-width="1.5"/>
  <text x="647" y="458" text-anchor="middle" font-size="10" font-weight="600" fill="#1E3A8A">CargoWise /</text>
  <text x="647" y="471" text-anchor="middle" font-size="10" font-weight="600" fill="#1E3A8A">SITA AMS</text>
  <text x="647" y="495" text-anchor="middle" font-size="8" fill="#94A3B8">1p</text>
  <rect x="64" y="512" width="158" height="72" rx="5" fill="white" stroke="#1D4ED8" stroke-width="1.5"/>
  <text x="143" y="540" text-anchor="middle" font-size="10" font-weight="600" fill="#1E3A8A">SITA ACARS /</text>
  <text x="143" y="553" text-anchor="middle" font-size="10" font-weight="600" fill="#1E3A8A">Jeppesen FliteDeck (EFB)</text>
  <text x="143" y="577" text-anchor="middle" font-size="8" fill="#94A3B8">1p</text>
  <rect x="232" y="512" width="158" height="72" rx="5" fill="white" stroke="#1D4ED8" stroke-width="1.5"/>
  <text x="311" y="540" text-anchor="middle" font-size="10" font-weight="600" fill="#1E3A8A">Honeywell GoDirect</text>
  <text x="311" y="553" text-anchor="middle" font-size="10" font-weight="600" fill="#1E3A8A">Flight Brief</text>
  <text x="311" y="577" text-anchor="middle" font-size="8" fill="#94A3B8">1p</text>
  <rect x="400" y="512" width="158" height="72" rx="5" fill="white" stroke="#1D4ED8" stroke-width="1.5"/>
  <text x="479" y="540" text-anchor="middle" font-size="10" font-weight="600" fill="#1E3A8A">NAVBLUE</text>
  <text x="479" y="553" text-anchor="middle" font-size="10" font-weight="600" fill="#1E3A8A">N-Flight Plus</text>
  <text x="479" y="577" text-anchor="middle" font-size="8" fill="#94A3B8">1p</text>
  <rect x="568" y="512" width="158" height="72" rx="5" fill="white" stroke="#1D4ED8" stroke-width="1.5"/>
  <text x="647" y="540" text-anchor="middle" font-size="10" font-weight="600" fill="#1E3A8A">Jeppesen eCharts</text>
  <text x="647" y="553" text-anchor="middle" font-size="10" font-weight="600" fill="#1E3A8A">/ NavData Service</text>
  <text x="647" y="577" text-anchor="middle" font-size="8" fill="#94A3B8">1p</text>
  <rect x="64" y="594" width="158" height="72" rx="5" fill="white" stroke="#1D4ED8" stroke-width="1.5"/>
  <text x="143" y="622" text-anchor="middle" font-size="10" font-weight="600" fill="#1E3A8A">Jeppesen FliteDeck</text>
  <text x="143" y="635" text-anchor="middle" font-size="10" font-weight="600" fill="#1E3A8A">Pro (Crew EFB)</text>
  <text x="143" y="659" text-anchor="middle" font-size="8" fill="#94A3B8">1p</text>
  <rect x="232" y="594" width="158" height="72" rx="5" fill="white" stroke="#1D4ED8" stroke-width="1.5"/>
  <text x="311" y="622" text-anchor="middle" font-size="10" font-weight="600" fill="#1E3A8A">Jeppesen</text>
  <text x="311" y="635" text-anchor="middle" font-size="10" font-weight="600" fill="#1E3A8A">FliteDeck Pro</text>
  <text x="311" y="659" text-anchor="middle" font-size="8" fill="#94A3B8">1p</text>
  <rect x="400" y="594" width="158" height="72" rx="5" fill="white" stroke="#1D4ED8" stroke-width="1.5"/>
  <text x="479" y="622" text-anchor="middle" font-size="10" font-weight="600" fill="#1E3A8A">NAVBLUE</text>
  <text x="479" y="635" text-anchor="middle" font-size="10" font-weight="600" fill="#1E3A8A">N-Flight Planning</text>
  <text x="479" y="659" text-anchor="middle" font-size="8" fill="#94A3B8">1p</text>
  <rect x="568" y="594" width="158" height="72" rx="5" fill="white" stroke="#1D4ED8" stroke-width="1.5"/>
  <text x="647" y="622" text-anchor="middle" font-size="10" font-weight="600" fill="#1E3A8A">Jeppesen FliteDeck</text>
  <text x="647" y="635" text-anchor="middle" font-size="10" font-weight="600" fill="#1E3A8A">Pro (EFB)</text>
  <text x="647" y="659" text-anchor="middle" font-size="8" fill="#94A3B8">1p</text>
  <rect x="64" y="676" width="158" height="72" rx="5" fill="white" stroke="#1D4ED8" stroke-width="1.5"/>
  <text x="143" y="708" text-anchor="middle" font-size="10" font-weight="600" fill="#1E3A8A">A.SkyWORKS</text>
  <text x="143" y="741" text-anchor="middle" font-size="8" fill="#94A3B8">1p</text>
  <rect x="232" y="676" width="158" height="72" rx="5" fill="white" stroke="#1D4ED8" stroke-width="1.5"/>
  <text x="311" y="704" text-anchor="middle" font-size="10" font-weight="600" fill="#1E3A8A">A.SkyWORKS (Schedule</text>
  <text x="311" y="717" text-anchor="middle" font-size="10" font-weight="600" fill="#1E3A8A">Edit module)</text>
  <text x="311" y="741" text-anchor="middle" font-size="8" fill="#94A3B8">1p</text>
  <rect x="400" y="676" width="158" height="72" rx="5" fill="white" stroke="#1D4ED8" stroke-width="1.5"/>
  <text x="479" y="704" text-anchor="middle" font-size="10" font-weight="600" fill="#1E3A8A">Jeppesen Crew</text>
  <text x="479" y="717" text-anchor="middle" font-size="10" font-weight="600" fill="#1E3A8A">Management Suite (CMS)</text>
  <text x="479" y="741" text-anchor="middle" font-size="8" fill="#94A3B8">1p</text>
  <rect x="568" y="676" width="158" height="72" rx="5" fill="white" stroke="#1D4ED8" stroke-width="1.5"/>
  <text x="647" y="704" text-anchor="middle" font-size="10" font-weight="600" fill="#1E3A8A">A.SkyWORKS</text>
  <text x="647" y="717" text-anchor="middle" font-size="10" font-weight="600" fill="#1E3A8A">(Recovery Workspace)</text>
  <text x="647" y="741" text-anchor="middle" font-size="8" fill="#94A3B8">1p</text>
  <rect x="64" y="758" width="158" height="72" rx="5" fill="white" stroke="#1D4ED8" stroke-width="1.5"/>
  <text x="143" y="786" text-anchor="middle" font-size="10" font-weight="600" fill="#1E3A8A">IATA SLOT</text>
  <text x="143" y="799" text-anchor="middle" font-size="10" font-weight="600" fill="#1E3A8A">coordination message (SSR/SIR)</text>
  <text x="143" y="823" text-anchor="middle" font-size="8" fill="#94A3B8">1p</text>
  <rect x="232" y="758" width="158" height="72" rx="5" fill="white" stroke="#1D4ED8" stroke-width="1.5"/>
  <text x="311" y="786" text-anchor="middle" font-size="10" font-weight="600" fill="#1E3A8A">Honeywell GoDirect /</text>
  <text x="311" y="799" text-anchor="middle" font-size="10" font-weight="600" fill="#1E3A8A">SITA NOTAM Service</text>
  <text x="311" y="823" text-anchor="middle" font-size="8" fill="#94A3B8">1p</text>
  <rect x="400" y="758" width="158" height="72" rx="5" fill="white" stroke="#1D4ED8" stroke-width="1.5"/>
  <text x="479" y="786" text-anchor="middle" font-size="10" font-weight="600" fill="#1E3A8A">NAVBLUE /</text>
  <text x="479" y="799" text-anchor="middle" font-size="10" font-weight="600" fill="#1E3A8A">SITA AFTN Gateway</text>
  <text x="479" y="823" text-anchor="middle" font-size="8" fill="#94A3B8">1p</text>
  <rect x="568" y="758" width="158" height="72" rx="5" fill="white" stroke="#1D4ED8" stroke-width="1.5"/>
  <text x="647" y="786" text-anchor="middle" font-size="10" font-weight="600" fill="#1E3A8A">SITA ACARS /</text>
  <text x="647" y="799" text-anchor="middle" font-size="10" font-weight="600" fill="#1E3A8A">Honeywell GoDirect Flight</text>
  <text x="647" y="823" text-anchor="middle" font-size="8" fill="#94A3B8">1p</text>
  <rect x="64" y="840" width="158" height="72" rx="5" fill="white" stroke="#1D4ED8" stroke-width="1.5"/>
  <text x="143" y="868" text-anchor="middle" font-size="10" font-weight="600" fill="#1E3A8A">Honeywell</text>
  <text x="143" y="881" text-anchor="middle" font-size="10" font-weight="600" fill="#1E3A8A">GoDirect Flight</text>
  <text x="143" y="905" text-anchor="middle" font-size="8" fill="#94A3B8">1p</text>
  <rect x="232" y="840" width="158" height="72" rx="5" fill="white" stroke="#1D4ED8" stroke-width="1.5"/>
  <text x="311" y="868" text-anchor="middle" font-size="10" font-weight="600" fill="#1E3A8A">Jeppesen FliteDeck</text>
  <text x="311" y="881" text-anchor="middle" font-size="10" font-weight="600" fill="#1E3A8A">(EFB NOTOC viewer)</text>
  <text x="311" y="905" text-anchor="middle" font-size="8" fill="#94A3B8">1p</text>
  <rect x="837" y="982" width="158" height="72" rx="5" fill="white" stroke="#16A34A" stroke-width="1.5"/>
  <text x="916" y="1014" text-anchor="middle" font-size="10" font-weight="600" fill="#14532D">A.Altéa PSS</text>
  <text x="916" y="1047" text-anchor="middle" font-size="8" fill="#94A3B8">5p</text>
  <rect x="1005" y="982" width="158" height="72" rx="5" fill="white" stroke="#16A34A" stroke-width="1.5"/>
  <text x="1084" y="1010" text-anchor="middle" font-size="10" font-weight="600" fill="#14532D">A.Altéa PSS</text>
  <text x="1084" y="1023" text-anchor="middle" font-size="10" font-weight="600" fill="#14532D">(Load Control module)</text>
  <text x="1084" y="1047" text-anchor="middle" font-size="8" fill="#94A3B8">1p</text>
  <rect x="1173" y="982" width="158" height="72" rx="5" fill="white" stroke="#16A34A" stroke-width="1.5"/>
  <text x="1252" y="1010" text-anchor="middle" font-size="10" font-weight="600" fill="#14532D">A.Altéa PSS</text>
  <text x="1252" y="1023" text-anchor="middle" font-size="10" font-weight="600" fill="#14532D">(load control module)</text>
  <text x="1252" y="1047" text-anchor="middle" font-size="8" fill="#94A3B8">1p</text>
  <rect x="1611" y="1124" width="158" height="72" rx="5" fill="white" stroke="#EA580C" stroke-width="1.5"/>
  <text x="1690" y="1156" text-anchor="middle" font-size="10" font-weight="600" fill="#7C2D12">AMOS MRO</text>
  <text x="1690" y="1189" text-anchor="middle" font-size="8" fill="#94A3B8">8p</text>
  <rect x="1779" y="1124" width="158" height="72" rx="5" fill="white" stroke="#EA580C" stroke-width="1.5"/>
  <text x="1858" y="1156" text-anchor="middle" font-size="10" font-weight="600" fill="#7C2D12">SITA ACARS</text>
  <text x="1858" y="1189" text-anchor="middle" font-size="8" fill="#94A3B8">6p</text>
  <rect x="1947" y="1124" width="158" height="72" rx="5" fill="white" stroke="#EA580C" stroke-width="1.5"/>
  <text x="2026" y="1156" text-anchor="middle" font-size="10" font-weight="600" fill="#7C2D12">Telex / SITA ACARS</text>
  <text x="2026" y="1189" text-anchor="middle" font-size="8" fill="#94A3B8">5p</text>
  <rect x="2115" y="1124" width="158" height="72" rx="5" fill="white" stroke="#EA580C" stroke-width="1.5"/>
  <text x="2194" y="1156" text-anchor="middle" font-size="10" font-weight="600" fill="#7C2D12">SITA ACARS / Telex</text>
  <text x="2194" y="1189" text-anchor="middle" font-size="8" fill="#94A3B8">2p</text>
  <rect x="1611" y="1206" width="158" height="72" rx="5" fill="white" stroke="#EA580C" stroke-width="1.5"/>
  <text x="1690" y="1234" text-anchor="middle" font-size="10" font-weight="600" fill="#7C2D12">Weight &amp;</text>
  <text x="1690" y="1247" text-anchor="middle" font-size="10" font-weight="600" fill="#7C2D12">Balance System</text>
  <text x="1690" y="1271" text-anchor="middle" font-size="8" fill="#94A3B8">1p</text>
  <rect x="1779" y="1206" width="158" height="72" rx="5" fill="white" stroke="#EA580C" stroke-width="1.5"/>
  <text x="1858" y="1234" text-anchor="middle" font-size="10" font-weight="600" fill="#7C2D12">Aviator Fuel</text>
  <text x="1858" y="1247" text-anchor="middle" font-size="10" font-weight="600" fill="#7C2D12">Intelligence (AvFuel)</text>
  <text x="1858" y="1271" text-anchor="middle" font-size="8" fill="#94A3B8">1p</text>
  <rect x="1947" y="1206" width="158" height="72" rx="5" fill="white" stroke="#EA580C" stroke-width="1.5"/>
  <text x="2026" y="1234" text-anchor="middle" font-size="10" font-weight="600" fill="#7C2D12">SITA FuelsManager /</text>
  <text x="2026" y="1247" text-anchor="middle" font-size="10" font-weight="600" fill="#7C2D12">Telex (SITA ACARS)</text>
  <text x="2026" y="1271" text-anchor="middle" font-size="8" fill="#94A3B8">1p</text>
  <rect x="2115" y="1206" width="158" height="72" rx="5" fill="white" stroke="#EA580C" stroke-width="1.5"/>
  <text x="2194" y="1234" text-anchor="middle" font-size="10" font-weight="600" fill="#7C2D12">SITA</text>
  <text x="2194" y="1247" text-anchor="middle" font-size="10" font-weight="600" fill="#7C2D12">ACARS Datalink</text>
  <text x="2194" y="1271" text-anchor="middle" font-size="8" fill="#94A3B8">1p</text>
  <rect x="1611" y="1288" width="158" height="72" rx="5" fill="white" stroke="#EA580C" stroke-width="1.5"/>
  <text x="1690" y="1316" text-anchor="middle" font-size="10" font-weight="600" fill="#7C2D12">SITA LoadManager</text>
  <text x="1690" y="1329" text-anchor="middle" font-size="10" font-weight="600" fill="#7C2D12">/ Telex ACARS</text>
  <text x="1690" y="1353" text-anchor="middle" font-size="8" fill="#94A3B8">1p</text>
  <rect x="1779" y="1288" width="158" height="72" rx="5" fill="white" stroke="#EA580C" stroke-width="1.5"/>
  <text x="1858" y="1320" text-anchor="middle" font-size="10" font-weight="600" fill="#7C2D12">Telex</text>
  <text x="1858" y="1353" text-anchor="middle" font-size="8" fill="#94A3B8">1p</text>
  <rect x="1947" y="1288" width="158" height="72" rx="5" fill="white" stroke="#EA580C" stroke-width="1.5"/>
  <text x="2026" y="1320" text-anchor="middle" font-size="10" font-weight="600" fill="#7C2D12">Intelex SMS</text>
  <text x="2026" y="1353" text-anchor="middle" font-size="8" fill="#94A3B8">1p</text>
  <rect x="2115" y="1288" width="158" height="72" rx="5" fill="white" stroke="#EA580C" stroke-width="1.5"/>
  <text x="2194" y="1316" text-anchor="middle" font-size="10" font-weight="600" fill="#7C2D12">Intelex SMS</text>
  <text x="2194" y="1329" text-anchor="middle" font-size="10" font-weight="600" fill="#7C2D12">(ASAP Module)</text>
  <text x="2194" y="1353" text-anchor="middle" font-size="8" fill="#94A3B8">1p</text>
  <rect x="64" y="1450" width="158" height="72" rx="5" fill="white" stroke="#0D9488" stroke-width="1.5"/>
  <text x="143" y="1482" text-anchor="middle" font-size="10" font-weight="600" fill="#134E4A">AWS Data Platform</text>
  <text x="143" y="1515" text-anchor="middle" font-size="8" fill="#94A3B8">2p</text>
  <rect x="232" y="1450" width="158" height="72" rx="5" fill="white" stroke="#0D9488" stroke-width="1.5"/>
  <text x="311" y="1478" text-anchor="middle" font-size="10" font-weight="600" fill="#134E4A">OCC Operations</text>
  <text x="311" y="1491" text-anchor="middle" font-size="10" font-weight="600" fill="#134E4A">Dashboard (AWS-hosted)</text>
  <text x="311" y="1515" text-anchor="middle" font-size="8" fill="#94A3B8">1p</text>
  <rect x="400" y="1450" width="158" height="72" rx="5" fill="white" stroke="#0D9488" stroke-width="1.5"/>
  <text x="479" y="1478" text-anchor="middle" font-size="10" font-weight="600" fill="#134E4A">SITA WorldBit</text>
  <text x="479" y="1491" text-anchor="middle" font-size="10" font-weight="600" fill="#134E4A">AFTN Gateway</text>
  <text x="479" y="1515" text-anchor="middle" font-size="8" fill="#94A3B8">1p</text>
  <rect x="568" y="1450" width="158" height="72" rx="5" fill="white" stroke="#0D9488" stroke-width="1.5"/>
  <text x="647" y="1478" text-anchor="middle" font-size="10" font-weight="600" fill="#134E4A">Power BI</text>
  <text x="647" y="1491" text-anchor="middle" font-size="10" font-weight="600" fill="#134E4A">(Ops Performance Portal)</text>
  <text x="647" y="1515" text-anchor="middle" font-size="8" fill="#94A3B8">1p</text>
  <rect x="64" y="1532" width="158" height="72" rx="5" fill="white" stroke="#0D9488" stroke-width="1.5"/>
  <text x="143" y="1564" text-anchor="middle" font-size="10" font-weight="600" fill="#134E4A">Tableau</text>
  <text x="143" y="1597" text-anchor="middle" font-size="8" fill="#94A3B8">1p</text>
  <rect x="232" y="1532" width="158" height="72" rx="5" fill="white" stroke="#0D9488" stroke-width="1.5"/>
  <text x="311" y="1564" text-anchor="middle" font-size="10" font-weight="600" fill="#134E4A">AWS S3 / Redshift</text>
  <text x="311" y="1597" text-anchor="middle" font-size="8" fill="#94A3B8">1p</text>
  <rect x="837" y="1674" width="158" height="72" rx="5" fill="white" stroke="#A21CAF" stroke-width="1.5"/>
  <text x="916" y="1702" text-anchor="middle" font-size="10" font-weight="600" fill="#701A75">A.Altéa Customer</text>
  <text x="916" y="1715" text-anchor="middle" font-size="10" font-weight="600" fill="#701A75">Management (ACM)</text>
  <text x="916" y="1739" text-anchor="middle" font-size="8" fill="#94A3B8">1p</text>
  <rect x="1611" y="1816" width="158" height="72" rx="5" fill="white" stroke="#94A3B8" stroke-width="1.5"/>
  <text x="1690" y="1844" text-anchor="middle" font-size="10" font-weight="600" fill="#475569">FAA TFMS</text>
  <text x="1690" y="1857" text-anchor="middle" font-size="10" font-weight="600" fill="#475569">/ EUROCONTROL NMOC</text>
  <text x="1690" y="1881" text-anchor="middle" font-size="8" fill="#94A3B8">1p</text>
  <rect x="1779" y="1816" width="158" height="72" rx="5" fill="white" stroke="#94A3B8" stroke-width="1.5"/>
  <text x="1858" y="1848" text-anchor="middle" font-size="10" font-weight="600" fill="#475569">Boeing Toolbox</text>
  <text x="1858" y="1881" text-anchor="middle" font-size="8" fill="#94A3B8">1p</text>
  <rect x="1947" y="1816" width="158" height="72" rx="5" fill="white" stroke="#94A3B8" stroke-width="1.5"/>
  <text x="2026" y="1848" text-anchor="middle" font-size="10" font-weight="600" fill="#475569">FAA TFMS</text>
  <text x="2026" y="1881" text-anchor="middle" font-size="8" fill="#94A3B8">1p</text>
  <rect x="2115" y="1816" width="158" height="72" rx="5" fill="white" stroke="#94A3B8" stroke-width="1.5"/>
  <text x="2194" y="1844" text-anchor="middle" font-size="10" font-weight="600" fill="#475569">FAA TFMS /</text>
  <text x="2194" y="1857" text-anchor="middle" font-size="10" font-weight="600" fill="#475569">EUROCONTROL CFMU NM Portal</text>
  <text x="2194" y="1881" text-anchor="middle" font-size="8" fill="#94A3B8">1p</text>
  <rect x="1611" y="1898" width="158" height="72" rx="5" fill="white" stroke="#94A3B8" stroke-width="1.5"/>
  <text x="1690" y="1926" text-anchor="middle" font-size="10" font-weight="600" fill="#475569">EUROCONTROL CFMU</text>
  <text x="1690" y="1939" text-anchor="middle" font-size="10" font-weight="600" fill="#475569">NM Portal</text>
  <text x="1690" y="1963" text-anchor="middle" font-size="8" fill="#94A3B8">1p</text>
  <rect x="1779" y="1898" width="158" height="72" rx="5" fill="white" stroke="#94A3B8" stroke-width="1.5"/>
  <text x="1858" y="1926" text-anchor="middle" font-size="10" font-weight="600" fill="#475569">Lido/Flight by</text>
  <text x="1858" y="1939" text-anchor="middle" font-size="10" font-weight="600" fill="#475569">Lufthansa Systems</text>
  <text x="1858" y="1963" text-anchor="middle" font-size="8" fill="#94A3B8">2p</text>
  <rect x="1947" y="1898" width="158" height="72" rx="5" fill="white" stroke="#94A3B8" stroke-width="1.5"/>
  <text x="2026" y="1926" text-anchor="middle" font-size="10" font-weight="600" fill="#475569">paper logbook</text>
  <text x="2026" y="1939" text-anchor="middle" font-size="10" font-weight="600" fill="#475569">at outstations)</text>
  <text x="2026" y="1963" text-anchor="middle" font-size="8" fill="#94A3B8">1p</text>
  <rect x="2115" y="1898" width="158" height="72" rx="5" fill="white" stroke="#94A3B8" stroke-width="1.5"/>
  <text x="2194" y="1926" text-anchor="middle" font-size="10" font-weight="600" fill="#475569">Lido/Flight by</text>
  <text x="2194" y="1939" text-anchor="middle" font-size="10" font-weight="600" fill="#475569">Lufthansa Systems (OFP)</text>
  <text x="2194" y="1963" text-anchor="middle" font-size="8" fill="#94A3B8">1p</text>
  <rect x="1611" y="1980" width="158" height="72" rx="5" fill="white" stroke="#94A3B8" stroke-width="1.5"/>
  <text x="1690" y="2012" text-anchor="middle" font-size="10" font-weight="600" fill="#475569">SITA LoadManager</text>
  <text x="1690" y="2045" text-anchor="middle" font-size="8" fill="#94A3B8">1p</text>
  <rect x="1779" y="1980" width="158" height="72" rx="5" fill="white" stroke="#94A3B8" stroke-width="1.5"/>
  <text x="1858" y="2012" text-anchor="middle" font-size="10" font-weight="600" fill="#475569">SITA BagManager</text>
  <text x="1858" y="2045" text-anchor="middle" font-size="8" fill="#94A3B8">1p</text>
  <rect x="1947" y="1980" width="158" height="72" rx="5" fill="white" stroke="#94A3B8" stroke-width="1.5"/>
  <text x="2026" y="2012" text-anchor="middle" font-size="10" font-weight="600" fill="#475569">Cargospot by SITA</text>
  <text x="2026" y="2045" text-anchor="middle" font-size="8" fill="#94A3B8">1p</text>
  <rect x="2115" y="1980" width="158" height="72" rx="5" fill="white" stroke="#94A3B8" stroke-width="1.5"/>
  <text x="2194" y="2008" text-anchor="middle" font-size="10" font-weight="600" fill="#475569">The Weather</text>
  <text x="2194" y="2021" text-anchor="middle" font-size="10" font-weight="600" fill="#475569">Company (DTN) AviationSentry</text>
  <text x="2194" y="2045" text-anchor="middle" font-size="8" fill="#94A3B8">1p</text>
  <rect x="1611" y="2062" width="158" height="72" rx="5" fill="white" stroke="#94A3B8" stroke-width="1.5"/>
  <text x="1690" y="2090" text-anchor="middle" font-size="10" font-weight="600" fill="#475569">Cairo AI</text>
  <text x="1690" y="2103" text-anchor="middle" font-size="10" font-weight="600" fill="#475569">Disruption Management Platform</text>
  <text x="1690" y="2127" text-anchor="middle" font-size="8" fill="#94A3B8">1p</text>
  <rect x="1779" y="2062" width="158" height="72" rx="5" fill="white" stroke="#94A3B8" stroke-width="1.5"/>
  <text x="1858" y="2090" text-anchor="middle" font-size="10" font-weight="600" fill="#475569">SITA Messaging</text>
  <text x="1858" y="2103" text-anchor="middle" font-size="10" font-weight="600" fill="#475569">&amp; Collaboration Platform</text>
  <text x="1858" y="2127" text-anchor="middle" font-size="8" fill="#94A3B8">1p</text>
  <rect x="1947" y="2062" width="158" height="72" rx="5" fill="white" stroke="#94A3B8" stroke-width="1.5"/>
  <text x="2026" y="2090" text-anchor="middle" font-size="10" font-weight="600" fill="#475569">A.Altéa Operations</text>
  <text x="2026" y="2103" text-anchor="middle" font-size="10" font-weight="600" fill="#475569">Control (OC)</text>
  <text x="2026" y="2127" text-anchor="middle" font-size="8" fill="#94A3B8">1p</text>
  <rect x="2115" y="2062" width="158" height="72" rx="5" fill="white" stroke="#94A3B8" stroke-width="1.5"/>
  <text x="2194" y="2090" text-anchor="middle" font-size="10" font-weight="600" fill="#475569">A.Altéa Departure</text>
  <text x="2194" y="2103" text-anchor="middle" font-size="10" font-weight="600" fill="#475569">Control (DCS)</text>
  <text x="2194" y="2127" text-anchor="middle" font-size="8" fill="#94A3B8">1p</text>
  <rect x="1611" y="2144" width="158" height="72" rx="5" fill="white" stroke="#94A3B8" stroke-width="1.5"/>
  <text x="1690" y="2172" text-anchor="middle" font-size="10" font-weight="600" fill="#475569">A.Altéa OC</text>
  <text x="1690" y="2185" text-anchor="middle" font-size="10" font-weight="600" fill="#475569">automated notification</text>
  <text x="1690" y="2209" text-anchor="middle" font-size="8" fill="#94A3B8">1p</text>
  <rect x="1779" y="2144" width="158" height="72" rx="5" fill="white" stroke="#94A3B8" stroke-width="1.5"/>
  <text x="1858" y="2172" text-anchor="middle" font-size="10" font-weight="600" fill="#475569">Sabre</text>
  <text x="1858" y="2185" text-anchor="middle" font-size="10" font-weight="600" fill="#475569">AirCentre Operations</text>
  <text x="1858" y="2209" text-anchor="middle" font-size="8" fill="#94A3B8">1p</text>
  <rect x="1947" y="2144" width="158" height="72" rx="5" fill="white" stroke="#94A3B8" stroke-width="1.5"/>
  <text x="2026" y="2172" text-anchor="middle" font-size="10" font-weight="600" fill="#475569">Boeing Toolbox</text>
  <text x="2026" y="2185" text-anchor="middle" font-size="10" font-weight="600" fill="#475569">/ CAMP</text>
  <text x="2026" y="2209" text-anchor="middle" font-size="8" fill="#94A3B8">1p</text>
  <rect x="2115" y="2144" width="158" height="72" rx="5" fill="white" stroke="#94A3B8" stroke-width="1.5"/>
  <text x="2194" y="2172" text-anchor="middle" font-size="10" font-weight="600" fill="#475569">Teledyne</text>
  <text x="2194" y="2185" text-anchor="middle" font-size="10" font-weight="600" fill="#475569">Controls GroundLink</text>
  <text x="2194" y="2209" text-anchor="middle" font-size="8" fill="#94A3B8">1p</text>
  <rect x="1611" y="2226" width="158" height="72" rx="5" fill="white" stroke="#94A3B8" stroke-width="1.5"/>
  <text x="1690" y="2254" text-anchor="middle" font-size="10" font-weight="600" fill="#475569">Safety Line</text>
  <text x="1690" y="2267" text-anchor="middle" font-size="10" font-weight="600" fill="#475569">FOQA Platform</text>
  <text x="1690" y="2291" text-anchor="middle" font-size="8" fill="#94A3B8">1p</text>
  <rect x="1779" y="2226" width="158" height="72" rx="5" fill="white" stroke="#94A3B8" stroke-width="1.5"/>
  <text x="1858" y="2258" text-anchor="middle" font-size="10" font-weight="600" fill="#475569">FAA DrAFT Portal</text>
  <text x="1858" y="2291" text-anchor="middle" font-size="8" fill="#94A3B8">1p</text>
  <rect x="1947" y="2226" width="158" height="72" rx="5" fill="white" stroke="#94A3B8" stroke-width="1.5"/>
  <text x="2026" y="2254" text-anchor="middle" font-size="10" font-weight="600" fill="#475569">CargoWise (cargo</text>
  <text x="2026" y="2267" text-anchor="middle" font-size="10" font-weight="600" fill="#475569">management platform)</text>
  <text x="2026" y="2291" text-anchor="middle" font-size="8" fill="#94A3B8">1p</text>
  <rect x="2115" y="2226" width="158" height="72" rx="5" fill="white" stroke="#94A3B8" stroke-width="1.5"/>
  <text x="2194" y="2258" text-anchor="middle" font-size="10" font-weight="600" fill="#475569">IATA DGR e-Tool</text>
  <text x="2194" y="2291" text-anchor="middle" font-size="8" fill="#94A3B8">1p</text>
  <rect x="1611" y="2308" width="158" height="72" rx="5" fill="white" stroke="#94A3B8" stroke-width="1.5"/>
  <text x="1690" y="2336" text-anchor="middle" font-size="10" font-weight="600" fill="#475569">A.Altéa</text>
  <text x="1690" y="2349" text-anchor="middle" font-size="10" font-weight="600" fill="#475569">LoadPlanner</text>
  <text x="1690" y="2373" text-anchor="middle" font-size="8" fill="#94A3B8">1p</text>
  <rect x="1779" y="2308" width="158" height="72" rx="5" fill="white" stroke="#94A3B8" stroke-width="1.5"/>
  <text x="1858" y="2340" text-anchor="middle" font-size="10" font-weight="600" fill="#475569">A.Altéa DCS</text>
  <text x="1858" y="2373" text-anchor="middle" font-size="8" fill="#94A3B8">1p</text>
  <rect x="1947" y="2308" width="158" height="72" rx="5" fill="white" stroke="#94A3B8" stroke-width="1.5"/>
  <text x="2026" y="2336" text-anchor="middle" font-size="10" font-weight="600" fill="#475569">A.Altéa DCS</text>
  <text x="2026" y="2349" text-anchor="middle" font-size="10" font-weight="600" fill="#475569">(loadsheet module)</text>
  <text x="2026" y="2373" text-anchor="middle" font-size="8" fill="#94A3B8">1p</text>
  <text x="50" y="2474" font-size="10" font-weight="700" fill="#64748B">LEGEND:</text>
  <rect x="120" y="2463" width="12" height="12" rx="2" fill="#DBEAFE" stroke="#1D4ED8" stroke-width="1.2"/>
  <text x="136" y="2474" font-size="9" fill="#475569">Planning &amp; Scheduling</text>
  <rect x="282" y="2463" width="12" height="12" rx="2" fill="#DCFCE7" stroke="#16A34A" stroke-width="1.2"/>
  <text x="298" y="2474" font-size="9" fill="#475569">PSS &amp; Reservations</text>
  <rect x="426" y="2463" width="12" height="12" rx="2" fill="#FFF3E0" stroke="#EA580C" stroke-width="1.2"/>
  <text x="442" y="2474" font-size="9" fill="#475569">Operations &amp; Crew</text>
  <rect x="564" y="2463" width="12" height="12" rx="2" fill="#CCFBF1" stroke="#0D9488" stroke-width="1.2"/>
  <text x="580" y="2474" font-size="9" fill="#475569">Analytics &amp; BI</text>
  <rect x="684" y="2463" width="12" height="12" rx="2" fill="#FDF4FF" stroke="#A21CAF" stroke-width="1.2"/>
  <text x="700" y="2474" font-size="9" fill="#475569">CRM &amp; Loyalty</text>
  <rect x="798" y="2463" width="12" height="12" rx="2" fill="#F8FAFC" stroke="#94A3B8" stroke-width="1.2"/>
  <text x="814" y="2474" font-size="9" fill="#475569">Other Systems</text>
</svg>